<svg width="60" height="60" viewBox="0 0 60 60" fill="none" xmlns="http://www.w3.org/2000/svg">
<g clip-path="url(#clip0_26_52)">
<path d="M1.81 49.3821H0.1397C0.0488 49.3821 0 49.4214 0 49.4946V53.4471C0 53.5204 0.0488 53.5597 0.1397 53.5597H1.838C3.292 53.5204 4.431 52.5969 4.431 51.4709C4.431 50.2942 3.131 49.3821 1.8101 49.3821H1.81ZM1.7191 52.7997H1.0273V50.1421H1.7191C2.6767 50.1421 3.4034 50.7335 3.4034 51.4709C3.4034 52.2084 2.6767 52.7998 1.7191 52.7998V52.7997ZM5.2041 49.5003V53.4471C5.2041 53.5204 5.2461 53.5597 5.3439 53.5597H6.0987C6.1897 53.5597 6.2315 53.5204 6.2315 53.4472V49.5003C6.2315 49.427 6.1896 49.3821 6.0987 49.3821H5.344C5.253 49.3821 5.2043 49.427 5.2043 49.5003H5.2041ZM11.4791 53.0812V51.803C11.4791 51.713 11.4091 51.6904 11.3464 51.6904H10.7244C10.6264 51.6904 10.5846 51.7299 10.5846 51.803V52.6646C10.361 52.7998 10.0534 52.856 9.7879 52.856C8.8373 52.8673 8.0897 52.2253 8.0897 51.4597C8.0897 50.6995 8.8164 50.1084 9.7879 50.1084C10.1722 50.1084 10.4937 50.221 10.7662 50.3843C10.8501 50.4293 10.9201 50.4069 10.9619 50.3675L11.3743 49.8888C11.4162 49.8438 11.4162 49.7874 11.3394 49.7425C10.8991 49.4722 10.4028 49.3201 9.774 49.3201C8.2922 49.3201 7.1042 50.2718 7.1042 51.4597C7.1042 52.6533 8.3062 53.6162 9.7879 53.6162C10.4168 53.6162 10.9899 53.436 11.4092 53.2051C11.4582 53.1714 11.4792 53.1319 11.4792 53.0813L11.4791 53.0812ZM12.5739 49.3821C12.483 49.3821 12.4342 49.427 12.4342 49.5003V53.4471C12.4342 53.5204 12.476 53.5597 12.5739 53.5597H13.3287C13.4197 53.5597 13.4615 53.5204 13.4615 53.4472V49.5003C13.4615 49.427 13.4196 49.3821 13.3287 49.3821H12.5739ZM17.9753 49.3821H14.3063C14.2155 49.3821 14.1734 49.4158 14.1734 49.489V50.0239C14.1734 50.0971 14.2154 50.1365 14.3064 50.1365H15.6131V53.4472C15.6131 53.5204 15.6551 53.5597 15.7459 53.5597H16.5007C16.5916 53.5597 16.6334 53.5204 16.6334 53.4472V50.1365H17.9753C18.0662 50.1365 18.1152 50.0971 18.1152 50.0239V49.489C18.1152 49.4158 18.0662 49.3821 17.9752 49.3821H17.9753ZM19.434 53.4584L19.7625 52.7827H21.908L22.2434 53.4584C22.2785 53.5317 22.3344 53.5597 22.4182 53.5597H23.1801C23.271 53.5597 23.3198 53.5148 23.2779 53.4415L21.307 49.489C21.2722 49.4158 21.2092 49.3821 21.1322 49.3821H20.5452C20.4752 49.3821 20.4125 49.4158 20.3706 49.489L18.3997 53.4415C18.3579 53.5204 18.3997 53.5597 18.4907 53.5597H19.2594C19.3361 53.5597 19.3991 53.5316 19.434 53.4584ZM20.8388 50.463L21.5725 52.0564H20.091L20.8388 50.4631V50.463ZM27.0842 53.4359V52.9235C27.0842 52.8446 27.0142 52.794 26.9303 52.794H24.8897V49.5003C24.8827 49.4158 24.8269 49.3764 24.736 49.3764H24.023C23.9254 49.3764 23.8624 49.4326 23.8624 49.5003V53.4359C23.8624 53.5204 23.9184 53.5597 24.0161 53.5597H26.9303C27.0352 53.5541 27.0843 53.509 27.0843 53.4359H27.0842ZM32.0643 51.0204C31.4703 50.8852 31.051 50.7727 31.051 50.4856C31.051 50.1027 31.4983 50.0351 31.8546 50.0351C32.267 50.0351 32.6304 50.2717 32.854 50.4236C32.945 50.48 33.0289 50.5249 33.1195 50.4575L33.504 50.1252C33.595 50.0463 33.595 49.9787 33.511 49.9055C33.0986 49.5679 32.4977 49.3032 31.8895 49.3032C30.7643 49.3032 30.0027 49.7761 30.0027 50.4687C30.0027 51.1106 30.6037 51.4709 31.7358 51.7412C32.1062 51.82 32.7143 51.9438 32.7143 52.3041C32.7143 52.5856 32.3858 52.8504 31.8337 52.8504C31.3025 52.8504 30.9113 52.5969 30.6247 52.3662C30.5407 52.3098 30.464 52.276 30.3801 52.3379L29.9119 52.7096C29.8139 52.7883 29.8698 52.8559 29.9467 52.9235C30.4149 53.3346 31.1349 53.6161 31.8547 53.6161C32.868 53.6161 33.7977 53.1094 33.7977 52.3266C33.7977 51.5441 33.0077 51.2456 32.0643 51.0204ZM38.4778 53.2275C38.5618 53.1769 38.5826 53.1318 38.5128 53.0642L38.1635 52.5856C38.1005 52.5236 38.0235 52.535 37.9398 52.5856C37.6951 52.7377 37.3387 52.8503 36.9614 52.8503C36.0178 52.8503 35.312 52.2253 35.312 51.4653C35.312 50.6995 36.0178 50.1027 36.9614 50.1027C37.3387 50.1027 37.6323 50.1984 37.9608 50.3616C38.0445 50.4011 38.1144 50.4011 38.1563 50.3559L38.5268 49.8494C38.5478 49.8211 38.5548 49.7593 38.4848 49.7085C38.0796 49.4722 37.5902 49.3201 36.9614 49.3201C35.4798 49.3201 34.2777 50.2717 34.2777 51.4653C34.2777 52.6589 35.4797 53.6218 36.9614 53.6218C37.5902 53.6218 38.0796 53.4697 38.4778 53.2275ZM40.3276 53.5597C40.4394 53.5597 40.4812 53.5204 40.4812 53.4472V51.758H42.8085V53.4472C42.8085 53.5204 42.8504 53.5597 42.9413 53.5597H43.6752C43.78 53.5597 43.8219 53.5204 43.8219 53.4472V49.4946C43.8219 49.4046 43.7519 49.3821 43.6961 49.3821H42.9413C42.8503 49.3821 42.8085 49.4326 42.8085 49.5003V50.9641H40.4812V49.4946C40.4812 49.4046 40.4045 49.3821 40.3485 49.3821H39.5937C39.5027 49.3821 39.4609 49.4326 39.4609 49.5003V53.4471C39.4609 53.5204 39.5028 53.5597 39.5937 53.5597H40.3276ZM47.2578 49.3201C45.7833 49.3201 44.6023 50.2773 44.6023 51.4709C44.6023 52.6589 45.7833 53.6161 47.2578 53.6161C48.7326 53.6161 49.9345 52.6589 49.9345 51.4709C49.9345 50.2773 48.7326 49.3201 47.2578 49.3201ZM47.2578 52.8278C46.3214 52.8278 45.6226 52.2253 45.6226 51.4709C45.6226 50.7107 46.3214 50.1084 47.2578 50.1084C48.2014 50.1084 48.9072 50.7107 48.9072 51.4709C48.9072 52.2253 48.2014 52.8278 47.2578 52.8278ZM53.2166 49.3201C51.742 49.3201 50.5611 50.2773 50.5611 51.4709C50.5611 52.6589 51.7421 53.6161 53.2166 53.6161C54.6914 53.6161 55.8933 52.6589 55.8933 51.4709C55.8933 50.2773 54.6914 49.3201 53.2166 49.3201ZM53.2166 52.8278C52.2802 52.8278 51.5814 52.2253 51.5814 51.4709C51.5814 50.7107 52.2802 50.1084 53.2166 50.1084C54.1602 50.1084 54.866 50.7107 54.866 51.4709C54.866 52.2253 54.1602 52.8278 53.2166 52.8278ZM59.8463 52.794H57.8055V49.5003C57.7985 49.4158 57.7427 49.3764 57.6518 49.3764H56.939C56.8411 49.3764 56.7782 49.4326 56.7782 49.5003V53.4359C56.7782 53.5204 56.8342 53.5597 56.9318 53.5597H59.8463C59.951 53.5541 60 53.509 60 53.4359V52.9235C60 52.8446 59.93 52.794 59.8463 52.794ZM1.81 55.7603H0.1397C0.0488 55.7603 0 55.7996 0 55.8729V59.8253C0 59.8987 0.0488 59.938 0.1397 59.938H1.838C3.292 59.8987 4.431 58.9751 4.431 57.8491C4.431 56.6724 3.131 55.7603 1.8101 55.7603H1.81ZM1.7191 59.1779H1.0273V56.5204H1.7191C2.6767 56.5204 3.4034 57.1117 3.4034 57.8492C3.4034 58.5868 2.6767 59.178 1.7191 59.178V59.1779ZM8.8173 59.1723H6.2245V58.1419H8.1533C8.2512 58.1419 8.3072 58.1026 8.3072 58.0293V57.4944C8.3072 57.4156 8.2442 57.3818 8.1533 57.3818H6.2245V56.5316H8.7545C8.8454 56.5316 8.8942 56.4923 8.8942 56.4191V55.8729C8.8942 55.7997 8.8454 55.7604 8.7545 55.7604H5.3369C5.246 55.7604 5.2042 55.7997 5.2042 55.873V59.8254C5.2042 59.8987 5.246 59.938 5.3369 59.938H8.8173C8.9082 59.938 8.9642 59.8987 8.9642 59.8255V59.2849C8.9642 59.2118 8.9082 59.1724 8.8172 59.1724L8.8173 59.1723ZM16.1314 55.7603H15.3208C15.2438 55.7603 15.181 55.794 15.1529 55.8672L13.8181 58.7836L12.4834 55.8672C12.4484 55.7884 12.3925 55.7603 12.3086 55.7603H11.5119C11.428 55.7603 11.3792 55.7996 11.421 55.8785L13.3499 59.8366C13.3849 59.9099 13.4477 59.9436 13.5317 59.9436H14.1187C14.1956 59.9436 14.2584 59.9099 14.2935 59.8366L16.2223 55.8842C16.2642 55.8052 16.2153 55.7603 16.1314 55.7603ZM17.7854 55.7603H17.0306C16.9397 55.7603 16.8909 55.8053 16.8909 55.8785V59.8253C16.8909 59.8987 16.9327 59.938 17.0306 59.938H17.7855C17.8763 59.938 17.9182 59.8987 17.9182 59.8254V55.8785C17.9182 55.8052 17.8763 55.7603 17.7855 55.7603H17.7854ZM23.3826 55.7603H22.6766C22.6208 55.7603 22.5508 55.7772 22.5229 55.8448V58.5078L20.2237 55.8448C20.1887 55.7884 20.0907 55.7603 20.021 55.7603H19.2032C19.0983 55.7603 19.0495 55.8165 19.0495 55.8841V59.8141C19.0495 59.8987 19.0983 59.938 19.2032 59.938H19.9092C20.021 59.938 20.0698 59.8987 20.0628 59.8141V57.0328L22.488 59.8479C22.5438 59.8987 22.5789 59.938 22.6907 59.938H23.3826C23.4944 59.938 23.5502 59.8987 23.5502 59.8141V55.8841C23.5502 55.8108 23.4523 55.7603 23.3826 55.7603ZM28.2164 58.9639C28.1534 58.9018 28.0764 58.9133 27.9927 58.9639C27.748 59.116 27.3916 59.2285 27.0143 59.2285C26.0707 59.2285 25.3649 58.6035 25.3649 57.8435C25.3649 57.0777 26.0707 56.481 27.0143 56.481C27.3916 56.481 27.6852 56.5767 28.0137 56.7398C28.0974 56.7793 28.1673 56.7793 28.2092 56.7342L28.5797 56.2276C28.6007 56.1993 28.6077 56.1375 28.5377 56.0868C28.1325 55.8504 27.6431 55.6983 27.0143 55.6983C25.5327 55.6983 24.3306 56.6499 24.3306 57.8435C24.3306 59.0371 25.5327 60 27.0143 60C27.6431 60 28.1325 59.8479 28.5307 59.6057C28.6147 59.5551 28.6355 59.51 28.5657 59.4424L28.2164 58.9639ZM30.4084 55.7603H29.6535C29.5629 55.7603 29.5138 55.8053 29.5138 55.8785V59.8253C29.5138 59.8987 29.5557 59.938 29.6535 59.938H30.4084C30.4993 59.938 30.5411 59.8987 30.5411 59.8254V55.8785C30.5411 55.8052 30.4993 55.7603 30.4084 55.7603ZM37.6283 56.0406H36.0114C35.9135 56.0406 35.8614 56.0827 35.8614 56.1666V59.8224C35.8614 59.9012 35.907 59.938 36.0049 59.938H36.2786C36.3765 59.938 36.4221 59.9012 36.4221 59.8224V58.4673H37.6479C38.4888 58.4673 39.1343 57.9052 39.1343 57.2592C39.1343 56.5973 38.4824 56.0406 37.6283 56.0406ZM37.6283 58.0208H36.422V56.4871H37.6282C38.1562 56.4871 38.5734 56.8495 38.5734 57.254C38.5734 57.6637 38.1433 58.0208 37.6282 58.0208H37.6283ZM42.0095 56.1351C41.9901 56.0983 41.9575 56.0406 41.8465 56.0406H41.6575C41.5402 56.0406 41.514 56.0983 41.4945 56.1351C41.4945 56.1404 41.488 56.1404 39.6038 59.7857C39.6038 59.7857 39.5907 59.8172 39.5907 59.8539C39.5907 59.9118 39.6364 59.938 39.7277 59.938H40.008C40.0993 59.938 40.1515 59.9065 40.1906 59.8329L40.5556 59.087H42.9288L43.307 59.8382C43.3332 59.8959 43.3983 59.938 43.483 59.938H43.7633C43.8481 59.938 43.9069 59.9118 43.9069 59.8539C43.9069 59.8329 43.8872 59.7909 43.8872 59.7909L42.0095 56.1351ZM40.7905 58.6406L41.7489 56.7182L42.7007 58.6406H40.7905ZM48.1902 57.2802C48.1902 56.5973 47.5122 56.0406 46.6582 56.0406H44.7739C44.6826 56.0406 44.6304 56.0827 44.6304 56.1666V59.8224C44.6304 59.9012 44.6826 59.938 44.7739 59.938H45.0477C45.1455 59.938 45.1912 59.9012 45.1912 59.8224V58.5092H46.3322C46.417 58.5092 46.6907 58.5092 46.7364 58.5041L47.5252 59.8382C47.5643 59.9012 47.61 59.938 47.6948 59.938H48.0533C48.1315 59.938 48.1706 59.9118 48.1706 59.8696C48.1706 59.8592 48.1642 59.8435 48.1576 59.8224L47.297 58.399C47.8252 58.2047 48.1902 57.7739 48.1902 57.2802ZM46.6647 58.0628H45.1912V56.4871H46.6582C47.2058 56.4871 47.6295 56.8601 47.6295 57.2749C47.6295 57.7005 47.2122 58.0628 46.6647 58.0628ZM49.4224 56.0406H49.1486C49.0573 56.0406 49.0051 56.0827 49.0051 56.1561V59.8224C49.0051 59.9012 49.0508 59.938 49.1486 59.938H49.4224C49.5137 59.938 49.5659 59.9012 49.5659 59.8224V56.1561C49.5659 56.088 49.5071 56.0406 49.4224 56.0406ZM52.291 57.6793C51.7304 57.5586 51.1305 57.4115 51.1305 57.0543C51.1305 56.7497 51.4435 56.4241 52.1802 56.4241C52.7279 56.4241 53.1517 56.6971 53.3604 56.8495C53.3994 56.881 53.4386 56.9019 53.4777 56.9019C53.5037 56.9019 53.5362 56.8863 53.5624 56.8652L53.758 56.7129C53.7905 56.6867 53.8102 56.6605 53.8102 56.6288C53.8102 56.5869 53.7385 56.529 53.6863 56.4819C53.3147 56.1929 52.7279 55.9828 52.2063 55.9828C51.1893 55.9828 50.5308 56.4292 50.5308 57.0701C50.5308 57.6006 51.0654 57.8842 52.1346 58.1049C52.8126 58.2466 53.4516 58.3728 53.4516 58.8035C53.4516 59.313 52.7474 59.5493 52.2062 59.5493C51.8934 59.5493 51.2869 59.3813 50.9024 59.0608C50.8828 59.0451 50.8177 58.9819 50.7589 58.9819C50.7329 58.9819 50.6873 58.9925 50.6611 59.0083L50.4524 59.1501C50.4134 59.1764 50.3939 59.2027 50.3939 59.2342C50.3939 59.2603 50.4133 59.2918 50.4461 59.3287C50.8633 59.7646 51.5152 59.9904 52.1868 59.9904C53.2038 59.9904 54.0123 59.523 54.0123 58.772C54.0123 58.0367 53.067 57.8527 52.291 57.6794V57.6793ZM5.5648 42.7764V27.0636C5.5648 26.726 5.3411 26.5684 4.9498 26.5684H0.7587C0.3677 26.5684 0.172 26.726 0.172 27.0636V42.7763C0.172 43.114 0.3677 43.2715 0.7587 43.2715H4.95C5.3412 43.2715 5.5649 43.114 5.5649 42.7763L5.5648 42.7764ZM10.6499 43.2716H14.8411C15.2324 43.2716 15.4561 43.1141 15.4561 42.7764V27.0636C15.4561 26.726 15.2324 26.5684 14.8411 26.5684H10.65C10.259 26.5684 10.0632 26.726 10.0632 27.0636V42.7763C10.0632 43.114 10.259 43.2715 10.65 43.2715L10.6499 43.2716ZM33.5061 42.7539L36.7753 33.952L37.921 42.7764C37.949 43.1141 38.1165 43.2716 38.5357 43.2716H42.5035C42.8945 43.2716 43.1461 43.1141 43.1182 42.7764L41.0226 27.0637C40.9946 26.7261 40.8268 26.5685 40.4079 26.5685H35.518C35.1267 26.5685 35.043 26.7261 34.9033 27.0637L31.1031 37.1711L27.3031 27.0637C27.1634 26.7261 27.0795 26.5685 26.6884 26.5685H21.7986C21.3794 26.5685 21.2118 26.7261 21.1839 27.0637L19.0883 42.7764C19.0602 43.1141 19.3117 43.2716 19.703 43.2716H23.6706C24.0897 43.2716 24.2574 43.1141 24.2853 42.7764L25.4588 33.7269L28.7001 42.7539C28.8119 43.1815 28.9517 43.2716 29.3708 43.2716H32.8356C33.2547 43.2716 33.3663 43.1815 33.506 42.7539H33.5061Z" fill="#201D1E"/>
<path d="M26.9622 0.461232C26.5733 0.212531 23.8865 -0.849945 22.0465 1.45249C19.8694 4.53252 24.1543 9.92595 24.1543 9.92595L28.6482 2.88161C28.5325 1.23247 27.351 0.709852 26.9622 0.461232ZM11.4204 1.08069H6.4614L18.1347 19.3006C19.7323 18.3507 20.4349 15.1524 18.8495 12.6766L11.4204 1.08069Z" fill="#EA7820"/>
</g>
<defs>
<clipPath id="clip0_26_52">
<rect width="60" height="60" fill="white"/>
</clipPath>
</defs>
</svg>
